<?xml version="1.0" encoding="iso-8859-1"?>
<svg version="1.1" id="Capa_1" xmlns="http://www.w3.org/2000/svg" xmlns:xlink="http://www.w3.org/1999/xlink" x="0px" y="0px"
	 viewBox="0 0 512.047 512.047" style="enable-background:new 0 0 512.047 512.047;" xml:space="preserve">
<g>
	<g>
		<g>
			<path fill="rgba(255, 255, 255, .7)" d="M478.265,104.8l-16-32c-2.711-5.38-8.215-8.782-14.24-8.8h-112V32c0-17.673-14.327-32-32-32h-96
				c-17.673,0-32,14.327-32,32v32h-112c-6.025,0.018-11.529,3.419-14.24,8.8l-16,32c-3.977,7.891-0.803,17.512,7.088,21.489
				c2.219,1.118,4.667,1.704,7.152,1.711h32v352c-0.484,8.207,2.208,16.285,7.52,22.56c6.436,6.501,15.346,9.937,24.48,9.44h288
				c17.673,0,32-14.327,32-32V128h32c8.837-0.027,15.978-7.212,15.952-16.048C479.969,109.467,479.383,107.019,478.265,104.8z
				 M208.025,32h96v32h-96V32z M400.025,480h-288V128h288V480z"/>
			<path fill="rgba(255, 255, 255, .7)" d="M272.025,416V160c-17.673,0-32,14.327-32,32l0.96,224h-0.96v32C257.699,448,272.025,433.673,272.025,416z"/>
			<path fill="rgba(255, 255, 255, .7)" d="M352.025,416V160c-17.673,0-32,14.327-32,32l0.96,224h-0.96v32C337.699,448,352.025,433.673,352.025,416z"/>
			<path fill="rgba(255, 255, 255, .7)" d="M192.025,416V160c-17.673,0-32,14.327-32,32l0.96,224h-0.96v32C177.698,448,192.025,433.673,192.025,416z"/>
		</g>
	</g>
</g>
</svg>
